<svg width="40" height="40" viewBox="0 0 40 40" fill="none" xmlns="http://www.w3.org/2000/svg">
<rect width="40" height="39.6796" rx="19.8398" fill="#EADDFF"/>
<path fill-rule="evenodd" clip-rule="evenodd" d="M26.0002 15.8719C26.0002 19.159 23.314 21.8238 20.0002 21.8238C16.6865 21.8238 14.0002 19.159 14.0002 15.8719C14.0002 12.5847 16.6865 9.91992 20.0002 9.91992C23.314 9.91992 26.0002 12.5847 26.0002 15.8719ZM24.0002 15.8719C24.0002 18.0633 22.2094 19.8398 20.0002 19.8398C17.7911 19.8398 16.0002 18.0633 16.0002 15.8719C16.0002 13.6804 17.7911 11.9039 20.0002 11.9039C22.2094 11.9039 24.0002 13.6804 24.0002 15.8719Z" fill="#4F378A"/>
<path d="M20.0002 24.7998C13.5259 24.7998 8.00952 28.5975 5.9082 33.9182C6.4201 34.4224 6.95934 34.8994 7.52353 35.3467C9.08827 30.4618 13.997 26.7838 20.0002 26.7838C26.0035 26.7838 30.9122 30.4618 32.477 35.3467C33.0412 34.8994 33.5804 34.4225 34.0923 33.9182C31.991 28.5975 26.4746 24.7998 20.0002 24.7998Z" fill="#4F378A"/>
</svg>
